<svg version="1.0" xmlns="http://www.w3.org/2000/svg"  viewBox="0 0 600 600" style="width:70px;height:auto"><path fill="#ffffff" d="M86.5 170.5c-5.6 2-7.7 5.2-11.8 17.4-12.5 37.2-9 64.5 10.6 83.3 8.5 8.2 29 17.1 53.7 23.3 10.7 2.7 32.7 6.5 37.9 6.5 2.6 0 3.2.3 2.7 1.6-.3.9-.6 2.4-.6 3.4 0 1.5-.5 1.6-4.7.8-12.6-2.4-27.2-.1-38.1 5.9-6.3 3.5-14.2 9.3-14.2 10.4 0 2.1 26.5 35.2 30.1 37.6 6.5 4.3 16 6.4 31 7l13.6.5 5.1 8.7c9.7 16.4 13.7 28.2 20.2 59.9 2.2 10.8 5.2 24.6 6.6 30.5 1.5 6.3 2.4 12.1 2 13.8-.3 1.6-.1 5.3.4 8.1 2.6 13.7 13.1 25.9 28.5 33.3 16.6 7.9 33.8 12 47.5 11.2 8-.5 12.1-1.5 25.5-6 8.8-3 18.9-6.9 22.4-8.7 12.1-6 20.4-16.5 23.1-29.1 1.3-5.7.8-15.1-.9-17.8-.5-.8-.5-2.8 0-4.5s3-13 5.5-25.1c7.6-37.2 11.3-48.8 20.9-65.1l5.4-9.1 13.8-.6c7.6-.3 16.2-1.3 19.2-2.1 11.6-3.2 13.5-4.8 28.3-24.1 7.6-9.8 13.8-18.2 13.8-18.6 0-1.1-9.3-7.5-15.7-10.7-11.7-5.9-24.1-7.8-36.6-5.4-5.2 1-5.2 1-5.6-3.4l-.2-3.1 7.3-.6c20.5-1.8 57-12.6 71.6-21.2 18.3-10.7 27.6-28.5 27.6-52.5 0-13.1-1.7-22.2-7.1-38.3-4.1-12.2-6.9-16-12.9-17.6-10-2.7-19.1 5.3-17.7 15.6.7 5.2-1.4 23.3-3.4 29.3-1.9 5.7-5.5 10.6-9.5 12.6-7.8 4-44 5.5-83.3 3.3-19.1-1-20.3-1.2-25.6-4-7-3.6-24.1-9.3-33.9-11.3-36.2-7.3-77.5-2.9-105.5 11.2-6.5 3.3-7.7 3.6-16.5 3.7-5.2 0-22.5.5-38.5.9-28.8.9-46.9.1-56.8-2.5-5.5-1.5-10.4-6.4-12.6-12.9-2.3-6.6-4.5-24.5-3.8-30.6 1.2-10.8-8.6-18.5-18.8-14.9m8.3 2.1c2.5.4 3.2.9 2.8 2.1-.6 1.4-.4 1.4 1.1.2 1-.7 1.5-1 1.1-.5-.4.4.2 1.7 1.3 2.9 1.6 1.8 1.9 3.7 2 13.6.1 6.4.3 12.7.5 14.1s.5 3.5.5 4.7c.1 1.3.6 2.3 1.1 2.3s.6.4.3 1c-.3.5.1 2 .9 3.2 1 1.6 1.2 2.8.6 3.8-.5.8-1 1.9-1 2.5 0 .5.5.3 1-.5.8-1.3 1-1.2 1 .3 0 1 .4 1.6.9 1.2.5-.3 1.2.4 1.6 1.5s1.1 1.8 1.6 1.5c.8-.6 1.3.8 1 2.7 0 .4.6.5 1.3.2.8-.3 2.4.4 3.5 1.5s2.1 1.6 2.3 1.1c.2-.6 1.8-.5 4 .2 2.2.6 3.5 1.6 3.1 2.2s.2.3 1.3-.6c1.4-1.2 2.4-1.4 3.7-.7 1 .6 10.8 1.1 22.7 1.2 11.5 0 20.7.4 20.5.7s2.4.3 5.8-.1 11.2-.9 17.2-1c6.1-.1 11.5-.6 12.2-1.1.7-.6 1.9-.5 3.2.2 1.5.8 2.1.8 2.1 0 0-.6.4-.9.9-.6 2.2 1.4 10 1.5 11.1.1.6-.8 1.9-1.1 2.7-.8 1.2.5 1.4.3.8-.6-.6-1-.2-1.1 1.5-.6 1.4.5 2 .3 1.6-.3-.3-.6.7-1.3 2.4-1.7 1.6-.4 3-1 3-1.5 0-1 8.6-4 9.4-3.2.3.3.6.1.6-.5 0-.5 1.4-1 3-1.1 2 0 2.8.3 2.4 1s-.2.8.5.4c.6-.4.9-1.1.6-1.6-.6-.9 1.8-2 4.6-2 1 0 1.9-.5 1.9-1.1 0-.5.3-.8.8-.6.4.3 4.3-.1 8.7-.9 19.2-3.5 41.9-3.4 61.5.1 4.7.8 8.9 1.5 9.3 1.5.5 0 .5.4.2 1-.3.5 0 .7.8.4s1.8-.1 2.2.5c.3.6 1.2 1.1 1.8 1.1.7 0 .6-.4-.3-1-1.3-.8-1.3-1 .2-1 1 0 2.3.6 3 1.3.6.8 2.3 1.2 3.7.9 1.9-.2 2.2-.1 1.2.6s-.6 1.1 1.5 1.5c5.2.9 7.7 1.6 8.3 2.3.3.4-.2.4-1.2.1-1.2-.4-1.6-.3-1.1.4.3.6 1.7.9 3 .6 2.7-.5 4.9 1.6 3.8 3.5-.5 1-.4 1.1.7 0 .7-.6 1.7-1.2 2.2-1.2.4 0 .5.6.1 1.2-.5.8 0 .7 1.1-.2 1-.8 1.6-1 1.2-.4-.4.7 1.1 1.5 4.3 2.1 2.8.6 5.3.7 5.6.2.2-.5 1.6-.4 3 .1 1.4.6 8.2 1 15.2 1 7 .1 14.6.5 16.9.9 2.3.5 4 .5 3.8.1-.3-.4 8-.8 18.3-.9 27.8-.3 33.1-.5 31.9-1.3-1-.6 1-1 3.8-.8 1.2.2 8.5-4.4 8.5-5.2 0-.5.5-.6 1-.3.6.3 1 .2 1-.3s.9-1.9 2-3.2c1.2-1.3 2-1.8 2-1 0 .7.3 1.1.6.8.3-.4.1-1.6-.5-2.7-1-1.8-.9-2 .6-1.4 1.6.6 1.7.5.3-1.2s-1.3-1.8.5-1.1c1.6.6 1.8.5.8-.5-1.6-1.6-1.7-4.3-.1-3.3.7.5.9.2.5-.8-.3-.9-.1-3.3.4-5.4.5-2.2.9-8.8.9-14.7.1-5.9.5-11.8 1.1-13 2.4-5.3 13-8.6 16.1-5 .5.7 1.4 1.1 1.8.8.5-.3 1.2 0 1.6.6.5.8.3.9-.7.4-.8-.4-.4.2.9 1.4 1.2 1.2 2.2 3 2.2 3.9 0 1 .6 2.6 1.4 3.7 1.8 2.7 2.7 7.7 1.2 6.8-.6-.4-.4.2.6 1.3 6.6 7.6 8.7 43.6 3.2 56.2-.8 1.7-2.1 4.9-3 7-.9 2-2.3 4.4-3 5.2s-2.2 2.5-3.3 3.7c-1 1.2-1.6 2.5-1.3 2.9.4.5-.1.2-1.1-.5-1.5-1.2-1.7-1.2-1.2.1s-3.5 5.7-5.3 5.8c-.4.1-2.3 1.4-4.1 3-2.6 2.2-3.7 2.6-4.3 1.7s-.8-.9-.8.2c0 .7-.6 1.1-1.5.7-.8-.3-1.4 0-1.2.6.1.6-1.1 1.5-2.8 2-1.6.5-3.7 1.2-4.5 1.5-.8.4-2.1.5-2.9.4s-1 .2-.5 1c.5.9.2 1-.9.6-1-.3-1.7-.2-1.7.4 0 .5-.6.9-1.2.7-.7-.1-2.2.3-3.4.9-1.1.7-3.1 1.4-4.5 1.6-1.3.2-3.1.6-3.9.9-4.1 1.4-13.7 4.1-15.2 4.3-1 .1-2.1.4-2.4.8-.4.4-1.2.7-1.8.7s-.4-.5.4-1.1c1.2-.9 1.1-.9-.5-.4-3 1.1-20.5 4.4-25 4.8-1.8.1-1.7 7.8.1 9.8 1.9 2.1 2 2-2 3.7-1.6.7-2.7 1.4-2.5 1.6s5.4-.5 11.4-1.5c15.3-2.5 24.3-.7 37.3 7.5 2.4 1.5 4.8 2.4 5.4 2 .7-.4.5-1-.6-1.6-.9-.5-1.6-1.3-1.6-1.9s.5-.6 1.2.1c.7.5 2.4 1.9 3.8 2.9 1.4 1.1 2.2 2.3 1.8 2.7s-1.4.1-2.3-.6-1.8-1-2.2-.7c-.3.4.7 1.2 2.1 1.9l2.7 1.2-2.6 1.3c-1.4.8-3.1 1.1-3.7.7-.7-.4-.8-.3-.4.4s.2 1.2-.5 1.2-1 .3-.7.6c.4.3 1.6.1 2.7-.5 1.7-1 2-.9 1.5.4-.4.8-1 1.5-1.5 1.5s-.9.6-.9 1.3c0 2-3.8 3.8-6.5 3.1-1.6-.4-2.5-.2-2.5.6 0 .6-.4.8-1 .5-.5-.3-1-.2-1 .4 0 .5-.9.8-1.9.6-1.2-.2-1.8.1-1.5.8.2.7-1.2 2.5-3.2 4.2-2 1.6-4.5 3.8-5.5 4.7-1 1-2.4 1.8-3 1.8-.5 0-.8.4-.5.9s0 1.3-.7 1.9c-2.3 1.9-10.8 4.3-12.9 3.6-1.2-.3-1.8-.2-1.5.3s-.8.8-2.6.6c-2.7-.3-2.9-.2-1.2.7 1.6.9 1.4.9-1.3.5-1.8-.2-3.1-.1-2.8.4s-.6 1.2-2 1.5c-1.5.4-2.4.9-2.1 1.2s5.8-.4 12.1-1.6c12.9-2.5 12.9-2.5 28.3-17.4 3.4-3.3 6.5-5.7 6.9-5.3.7.7-11.8 14.9-17.4 19.6-4.6 3.9-8.1 4.8-20.7 5.8-5.5.4-9.2.9-8.2 1.1.9.2 1.7.7 1.7 1.2 0 .4 1 .6 2.3.4l2.2-.5-2.2 1c-1.3.6-5.4.8-9.2.6-6.2-.3-7.1-.1-9.1 2-1.3 1.4-2.6 2.2-3.1 2-.4-.3-.5.4-.2 1.5.3 1.2-.1 2.2-1.1 2.6-.9.3-1.3 1-1 1.5s0 .9-.7.9-.9.3-.6.6c.4.4-.2 1.9-1.2 3.3-2.7 4-6.6 12.5-6.3 13.8.2.7-.2 1.3-.8 1.3-.5 0-1 1-1 2.2-.1 1.3-.7 3.4-1.5 4.8s-1.4 3.5-1.5 4.8c0 1.2-.4 3-1 4-1 1.8-6.7 26.9-8.2 36.2-1.3 8.3-1.6 10-3.3 16-1.3 4.6-1.4 6.6-.4 12.1.7 3.7.9 9 .5 12.1-.8 5.9-6.5 18.4-8.4 18.1-.7-.2-.9.4-.5 1.4s.2 1.4-.4 1-1.6 0-2.3.8c-1.1 1.3-1 1.4.6.9 1-.3.4.3-1.4 1.5s-3.9 2.1-4.8 2.1c-.8 0-1.2.4-.9 1 .3.5-.2 1-1.1 1-1 0-1.4.3-1 .7.7.7-21.6 9.4-24.9 9.6-1.1.1-2.2.4-2.5.7-1.1 1.2-11 4.1-11.9 3.6-.5-.3-2.2-.1-3.8.5-4.7 1.9-25.1 1.1-23.9-.9.2-.4-.9-.8-2.5-.9s-6.2-1.2-10.2-2.4c-3.9-1.3-7.8-2.2-8.6-2q-1.2.15-.6-.9c.5-.9.1-1-1.5-.5-1.5.5-2 .4-1.6-.4.6-.9-.1-1.2-2.9-1.1-.3 0-1.1-.4-1.8-1-.6-.6-3.8-2.8-6.9-5-5.8-4.1-5.8-4.2-4.9-10.3.2-1.3 2.8-.7 5.5 1.4 3.8 3 3.2 1.5-1.9-4.9-7-9.1-9.1-17.2-6.1-24.3 4.3-10.4 19.2-14.7 34.1-9.9 12.3 4 44.3 3.9 49.2-.1.7-.6 1.3-.6 1.7-.1.6 1-7.5 4.9-14.9 7.3-4.5 1.4-22.7 1.8-29.5.6-7.9-1.4-3 1 6.6 3.2 17.5 4 31.1 2.6 49.9-5 5.8-2.4 9.6-3.3 13.9-3.3 5.3-.1 6.1.2 8 2.7 1.7 2.3 2.1 4.2 2.1 10.5 0 6.6-.4 8.4-2.9 12.9-3 5.4-8.6 11.3-10.7 11.3-.7 0-.4-1 .8-2.3 2.2-2.3 4.7-6.7 3.9-6.7-.3 0-2.4 2-4.8 4.5l-4.3 4.6-14-1.2c-13.4-1.1-41.5-.8-63 .7l-9 .6-4.7-4.1c-2.5-2.2-4.9-4.1-5.2-4.1s.7 2 2.2 4.5c1.7 2.8 3.8 4.8 5.7 5.5 2.8.9 14.2.6 15.2-.4.2-.2 1.8 0 3.4.4 1.6.5 2.7.5 2.4.1-.2-.5 3-.8 7.3-.7 4.2.1 9.4-.1 11.5-.5 2-.3 4-.2 4.3.3s1.1.4 1.9-.2c1.4-1.1 20.3.2 22.6 1.6.7.4.9.3.5-.4-.8-1.3 12-.6 16.7.8 1.7.6 2.5.6 2.2 0-1-1.6 4.1-2.3 6.7-.9 2.1 1.1 2.2 1.1.9-.4-.7-1-1-1.7-.5-1.7 1.4.1 4.4 2.6 3.8 3.2-.3.4-.1.9.4 1.2.6.3.9-.2.8-1.1-.2-.9-.8-1.9-1.4-2.1-1-.3 2.3-7.2 3.5-7.2.2 0 .2.4-.1.9s.1 1.4.9 2.1 1.2 1.7.8 2.3c-.3.5-.1.7.5.4 1.1-.8 1.1-2.5-.1-4.4-.5-.7.1-3.2 1.3-5.5 1.1-2.4 1.8-3.4 1.5-2.3-.4 1.1-.2 1.6.2 1.1 1-.9 1.4-4.4 1.6-11.6 0-5.5-.5-12.1-1.1-11.5-.1.1-1.7-1.2-3.5-2.9-2.8-2.7-3-3.3-1.7-4.3 1.1-.9.5-.9-2 .1-1.9.7-4.6 1.3-6 1.1-2.6-.2-8.1 1.4-13.8 4.1-1.8.8-3.7 1.2-4.2.9-.6-.3-1-.2-1 .3s-2.8 1.7-6.2 2.7c-3.5.9-7 2-7.8 2.3-1.7.6-9.3 1.2-8.8.7 1-1 11.8-4 11.8-3.3 0 .4.5.8 1.1.8.5 0 .8-.4.4-.9-.3-.6.8-2 2.5-3.2 4.3-3.2 3.9-5.4-1-6.4-1.1-.2-1.8 0-1.5.4.8 1.5-2.5 2.1-4.4.9s-5.6-.4-4.7 1c.2.4-4.9.7-11.5.7-6.5 0-11.9-.4-11.9-.8 0-.5-.5-.5-1-.2-1.6 1-7.1-.5-6.4-1.7.5-.7.1-.7-1.1 0-1.3.7-2.8.6-5-.4-7.3-3-12.8-3.3-21-1.1-2.2.6-4.6.9-5.4.8s-1 .2-.5 1c.4.8.3 1-.4.5-.6-.4-2.9 1.1-5.1 3.4s-4.5 3.9-5 3.6c-.5-.4-1.3-.2-1.6.4-.4.6-.3 1 .2.9 2-.3 2.7.2 1.4 1-1.7 1.1-2.4 14.9-.9 16.8.6.7.8 2 .4 2.8-.3.9-.2 1.3.4 1s1-.1 1 .5.4.9.9.6c.8-.5 2.5 2.9 2.2 4.6-.1.5.2.7.7.7 2-.3 2 .3.1 2.2-1.1 1.1-1.8 2.7-1.5 3.5.8 2 .1 1.8-2.8-1-1.5-1.3-2.6-3.1-2.6-4 0-1-.4-1.5-.9-1.2-1 .6-4.2-6.3-4.9-10.4-.2-1.4-.5-5.7-.6-9.6-.2-3.8-.8-8.6-1.5-10.5-.6-1.9-1.2-5.4-1.4-7.7-.1-2.3-.5-4.2-.8-4.2-.4 0-1-.7-1.3-1.6-.3-.8-.2-1.2.3-.9s.2-.9-.6-2.7c-.9-1.7-1.7-5.3-1.7-7.9s-.4-4.5-.8-4.3c-.5.3-.8-.7-.8-2.3 0-1.5-.5-4.4-1-6.3-1.5-5.1-2.4-10.1-2.3-13.3 0-1.5-.3-2.7-.8-2.7-.7 0-1.9-4-2.4-8-.2-.8-1.5-4.9-3-9-1.4-4.1-2.7-8.1-2.7-8.8-.1-.6-.5-1.2-1-1.2s-.4-.9.2-2c.9-1.6.8-1.9-.7-1.3-1.3.5-1.5.3-1-1.1.4-.9.3-1.5-.2-1.2s-1.6-.9-2.5-2.7c-.9-1.7-2.5-4.6-3.6-6.2-1.1-1.7-2.7-4.5-3.6-6.3-1.5-3-3.6-4.1-7.4-4.1-7.3.1-23.5-2.5-31.3-5.1-10.4-3.5-13.1-5.6-16-12-1.1-2.5-2.8-5.7-3.8-7.2-2.1-2.9-2.3-3.8-1.1-3.8.5 0 3 3.4 5.7 7.5 2.6 4.1 5.4 8 6 8.5 2.2 1.9 21.4 8 27 8.6 8.3 1 10.3-.5 3-2.3-3.3-.8-7.3-1.4-8.9-1.4-1.5 0-3.4-.6-4.2-1.4s-2.2-1.1-3.1-.8c-1.1.5-1.4.3-.8-.6.5-1 .2-1.1-1.3-.7-1.1.4-2.3.2-2.7-.4-.3-.6-1.1-.8-1.6-.5-.5.4-.9-.2-.9-1.2 0-1.5-.2-1.6-1-.3-.7 1.1-1 1.1-1 .2 0-.7-.6-1.2-1.4-1-1.5.3-6.6-6.4-6.6-8.7 0-.8-.5-1.7-1.2-2.1-.7-.5-.9-.2-.4.7.4.8 0 .5-.8-.5-.9-1.1-1.6-2.4-1.6-3 0-.5-.3-.6-.7-.3-.3.4-1.2-.1-1.9-1.1-.9-1.1-1.6-1.3-2.1-.7-1 1.3-2.3 1.3-4.3 0-1.3-.8-1.3-.7-.1.8.7.9 1.7 1.5 2.1 1.2.5-.3.6.5.3 1.6-.5 1.9-.8 1.8-2.9-1.7-1.3-2.2-2.2-4.5-1.9-5.3.5-1.2.3-1.2-1.1 0-1.6 1.3-1.6 1.2-.5-.9 1.2-2.2 1.1-2.3-.9-1.2-1.5.8-2 .8-1.6.1.4-.6.2-1.1-.5-1.1-.8 0-.8-.4.1-1.5 1.1-1.3 1-1.4-.2-1-.8.3-2-.1-2.7-.9-1-1.2-.9-1.9.7-3.6 1.7-1.8 2.1-1.9 3.1-.6.7.8 1 2 .6 2.6s2.6-1.1 6.7-3.7c4-2.6 10.1-5.7 13.5-7 7.6-2.7 18.3-4 20.9-2.5 1.6 1 1.2 1.2-2.6 1.2l-4.5.2 6.4 1.4c7.3 1.5 7.7 1.8 8.7 5.7.6 2.6.5 2.8-1.2 1.8-3.3-1.9-13.7-6.1-14.1-5.8-.7.8 11.7 7.8 12.7 7.2.5-.3 1-.2 1 .4 0 2.2-2.1 2.1-5.2-.2-7.8-5.7-17.5-6.6-29.3-2.7-7.2 2.4-14.5 7.6-10.7 7.6 1.1 0 2-.5 1.9-1.1-.1-.5.4-.9 1.1-.8.6.2 1.2-.1 1.2-.7 0-.5.7-.6 1.7-.3 1.2.5 1.4.3.8-.7s-.4-1.2.8-.7c1 .3 1.7.3 1.7-.1s1.2-.8 2.7-.9c1.4 0 2.1.2 1.6.5-.6.4-1.3 1.6-1.5 2.7-.3 1.8.3 2 7.2 2 4.1.1 9.3.5 11.5.9 5.1 1 12.4 3.5 10.6 3.6-.8 0-1.2.3-.8.6.3.4 2.2-.4 4.2-1.6 2.9-1.8 3.4-2.5 2.4-3.7-.9-1-1.4-1.1-1.9-.2-.5.8-1 .8-1.4.1-.7-1.1 3.2-3.8 4.7-3.4.5.1.6-.2.3-.7s.1-1.1.9-1.4c1.2-.5 1.2-1.1-.2-3.9-.9-1.8-2.2-3.7-3-4.1-.7-.5-1-1.4-.6-2 .5-.9.3-.9-.8-.1-1.1.9-1.7.9-2.7-.2-1.4-1.5-.7-1.8 3.1-1.5.9.1 1.7-.3 1.7-.9 0-.7.8-.9 2.2-.4 2.1.6 2.1.6.5-1-2.1-2.1-2.2-3-.3-2.3 1.1.4 1.3 0 1.1-1.5-.5-2.5-.1-2.1-4.8-4.7-2.1-1.2-3.5-1.6-3.1-1 .6 1.1.4 1.1-5.8-.8-1.3-.3-3.9-.7-5.8-.8-1.9-.2-6.4-.8-10-1.5-6-1.2-9.5-1.7-12.8-1.9-.7-.1-1.1-.5-.8-1s-.4-.9-1.7-.9c-2.7 0-13.5-2.9-15.9-4.2-1-.6-2.7-1-3.8-1-1.4 0-1.9-.4-1.4-1.2s.2-.9-1.1-.5c-.9.4-2.3.4-2.9-.1s-3.2-1.6-5.8-2.6c-2.5-.9-5.2-2.4-5.8-3.2-1.5-1.7-3.4-1.9-2.4-.2.4.7-.7.1-2.5-1.3-1.8-1.3-4-2.9-4.9-3.4-3.7-2.4-6.2-5-5.8-6.1.3-.8-.3-1-1.7-.7-1.8.4-1.9.3-.7-.6 1.3-.9 1.3-1.1-.2-1.1-.9 0-2-.9-2.3-2s-1.1-2-1.6-2-.9-.7-.9-1.6.5-1.2 1.2-.8.8.3.4-.4c-.4-.6-1.3-.9-2-.6-2.1.8-4.8-5.3-3.5-7.8.8-1.4.8-1.8 0-1.4-1.6 1-2.8-2.1-4-10.5-1.7-11.2-.5-27.1 3-39.4 1.2-3.9 2.1-7.8 2.2-8.7s.4-1.5.8-1.2c.4.2.9-.6 1.1-1.8.2-1.3.9-2.2 1.5-2.1s.9-.6.6-1.7c-.8-2.9 1.7-8.2 3.4-7.6.8.3 1.1.2.8-.3-1.3-2.1 4.5-3.5 10.3-2.5M149 311c-2 1.3-3.3 1.3-2.5 0 .3-.6 1.4-1 2.3-1 1.5 0 1.5.2.2 1m-5.3 3.1c-1.1.6-2.5 1.2-3.3 1.3s-3 1.7-5 3.4c-3.5 3.2-5.4 3.4-5.4.7 0-1.4 3.7-3.1 4.7-2.2.2.3 1.3-.3 2.4-1.4s2.4-1.7 2.9-1.4c.6.4 1 .1 1-.4 0-.6 1-1.1 2.3-1.1 2 .1 2.1.1.4 1.1m326.8 2.8c-.6.5-2.5-1-2.5-2 0-.5.6-.4 1.4.3s1.2 1.5 1.1 1.7m-288 3.1c.3.5.1 1-.4 1-.6 0-1.1-.5-1.1-1 0-.6.2-1 .4-1 .3 0 .8.4 1.1 1m-12.9 4.4c2.8 1.3 5.5 2.9 5.9 3.5.4.7 1.6.9 2.8.5 2.1-.6 2.1-.5.4.8-1.7 1.2-2.5 1.1-6.9-1.1-3.9-1.9-7.1-2.6-14-2.9-5.8-.3-9.3-.1-10.1.7-1.4 1.4-3 1.4-2.1 0 2.6-4.3 16.2-5.2 24-1.5m289.7 26.8c-1.1 1.3-2.5 3.2-3.1 4.3-.8 1.3-1.1 1.5-1.2.6 0-.8 1.2-2.8 2.7-4.3 3.2-3.3 4.5-3.8 1.6-.6m-6.6 7.5c-1.2 1.3-1.5 1.3-1.4.2.2-.8.7-2.1 1.2-2.9.7-1.1 1-1.1 1.3-.1.2.7-.3 2-1.1 2.8m-132 107.9c-.3.3-1.2.4-1.9.1-.8-.3-.5-.6.6-.6 1.1-.1 1.7.2 1.3.5"/><path fill="#ffffff" d="M512.5 175c.3.5.8 1 1.1 1 .2 0 .4-.5.4-1 0-.6-.5-1-1.1-1-.5 0-.7.4-.4 1M89 177c1.3.9 1.3 1.2-.2 2.1-2.7 1.5-7.5 13.2-6.9 16.6.1.7-.2 1.3-.7 1.3-1.7 0-3.8 11.9-4.7 25.9-.5 8.5 1.3 22 3.5 26.2.6 1.1.8 2.5.4 3.1-.5.7-.3.8.5.4.8-.6 1.1-.2.9 1-.2 1 .3 1.9.9 1.9.7 0 2 1.1 3 2.4 1.6 2.3 1.6 2.4-.1 1.8-1-.4-1.5-.3-1.1.3.3.6 1.2 1 1.8 1 1.7 0 9.8 8.6 8.9 9.4-.3.4.2.4 1.2 0 1.3-.5 1.7-.4 1.2.4-.3.6-.1 1.4.5 1.8.8.4.9.3.5-.4s-.3-1.2.3-1.2c.5 0 1.3.5 1.6 1 .4.6 1.1.8 1.6.5.5-.4.9.1.9.9 0 .9-.5 1.6-1.2 1.6-.6 0-.9.2-.6.5s1.6.1 2.9-.3c2.5-1 6 .6 8.7 3.8 1.1 1.3 1.1 1.3.6-.2-.4-1.3-.1-1.5 1.5-1.1 1.1.3 1.9.9 1.6 1.3s.3.7 1.3.6c.9 0 1.6.3 1.5.9 0 .5 1.6 1.1 3.7 1.1 2 .1 5.8 1.1 8.4 2.3 2.6 1.1 4.4 1.5 4 1-.4-.6.5-.3 1.9.6 1.6 1 3.4 1.4 4.8 1 1.6-.5 1.9-.4 1.4.6q-.9 1.35.9.6c1-.4 2.2-.4 2.8-.1.5.3 3.5.7 6.6.9 5.1.3 4.5 0-5.8-2.6-23.8-6-42.5-13.2-51.2-19.7-6.3-4.6-12.7-13.5-15.5-21.4-2.7-7.9-2.5-30.4.5-41.3 2.9-10.7 6.9-22.4 8.3-24.1 1.2-1.5.4-3.4-1.4-3.4-.7 0-.6.4.3 1m420 1c-1.3.9-1.3 1.2.2 2 4 2.4 10.7 26.5 11.5 41.5 1.1 21.3-4.1 34.6-17.7 44.9-7.3 5.6-31.2 15-47 18.6-7.2 1.6-8.9 2.5-6.1 3.3 1.3.3 1.9.1 1.5-.5s.1-.8 1.5-.3c1.1.3 2.1.3 2.1-.2s.9-.9 2-1 1.8.2 1.5.7c-.3.6.1.7 1 .3 1.3-.5 1.4-.7.3-1.4-2.1-1.4.9-1.1 3.5.3 2 1 2.1.9.9-.5-1.1-1.3-1-1.5.7-1 1.2.3 2.1.1 2.1-.6 0-.6 1.2-1.1 2.8-1.1 2.6 0 11.2-2.8 15.9-5.2 1.2-.6 3.3-.8 4.7-.6 2.1.4 2.4.2 1.6-.8-.9-1-.6-1.1.9-.7 1.2.3 2.1.1 2.1-.5s.9-1.4 2-1.7c1.1-.4 1.8-1.1 1.5-1.6s.1-.6.9-.3c.9.3 1.6.1 1.6-.6 0-.6.4-.9.9-.6s1.2-.1 1.5-1c.4-.9.9-1.4 1.2-1.1s2.1-1 3.9-2.9c1.9-1.9 3.9-3.4 4.5-3.4s.8-.5.5-1c-1-1.7.6-3.4 1.7-1.9.6 1 .7.7.3-1-.5-1.6-.4-2.1.4-1.7.6.4 1.1.2 1.1-.4s.4-.9.9-.5c.5.3 1.3.1 1.6-.5.4-.6.1-.9-.6-.8-.6.2-1.4-.4-1.7-1.2-.2-.8-.1-1.2.4-.7 1 1 4.4-7.9 4.4-11.8 0-2.4.2-2.7 1.1-1.5.8 1.2 1 1 .6-1-.2-1.4-.2-5 .2-8 .4-3.1.1-8.4-.6-12.4-.7-3.8-1.1-7.2-.8-7.6.2-.3-.2-2.4-1-4.6-.8-2.1-1.4-5.3-1.5-7.1 0-1.7-.5-3.3-1-3.5-.6-.2-1.2-1.2-1.4-2.3s-.9-3.3-1.5-4.9c-.7-1.6-.9-3.1-.6-3.4.2-.3-.8-1.8-2.4-3.3s-2.7-3-2.3-3.3c.9-.9-.2-.7-1.8.4"/><path fill="#ffffff" d="M504.5 179c-.4.6-.1.9.7.8 1-.2 1.3 4.2 1.3 21.9 0 12.3.3 22.3.6 22.3 1.9 0 2.6-39.4.7-43.5q-1.8-4.05-3.3-1.5M91 181.6c-.6 1.4-1 5.1-1 8.3 0 8.9 4 30.4 5.4 29 .2-.2-.2-3.6-.9-7.4-1.6-7.8-2.1-25.6-1-27.6.6-.8.4-1-.5-.4-1 .6-1.1.2-.6-1.9.8-3.3-.1-3.4-1.4 0m429.7 6.5c.4 1.3.8 1.8 1.1 1 .2-.7-.1-1.8-.6-2.3-.8-.8-.9-.4-.5 1.3"/><path fill="#ffffff" d="M95.4 201.5c.2 6.3 1.1 13.2 2 16.2 3.7 11.7 12.3 20 23.2 22.2 16.2 3.2 49.7 3.8 90.4 1.5 6.3-.4 11.2-.4 10.9 0-.9 1-25.7 3.5-34.9 3.7-4.1 0-8.4.5-9.5 1-1.3.6 7.5.8 24 .6l26-.2v2.9c0 2.7-.4 3.1-5 4.3-2.7.7-6.8 1.3-9 1.4-3.5.1-3.7.2-1.5.9 1.4.4 5.3.8 8.8.9 3.4.1 6.2.2 6.2.3 0 .2-.9 2.5-1.9 5.3l-1.9 5-16.3.3c-18.1.3-40.1-1-53-3.3-9-1.5-11.6-1.3-5 .5 10.2 2.7 45.1 6.6 65.4 7.2 6.4.3 7.6.5 7.1 1.8-.3.8-.9 2.4-1.2 3.4-.5 1.8-1.4 1.9-19.1 1.3-41.8-1.5-69.7-6.4-88.7-15.7-21.3-10.4-28.2-28.7-23.7-63 1.1-8.5-.9-3.1-2.3 6.2-5.3 35.3 2.5 53.6 28.1 66.3 9.4 4.6 23.4 9.5 34.5 12 11.8 2.7 11.9 2.7 8 .5-1.9-1-4.6-1.9-6-2-1.4 0-3.8-.7-5.4-1.5-1.5-.8-3.1-1.3-3.5-1.1-.3.2-2.4-.4-4.6-1.4-2.2-1.1-5.1-2-6.5-2-2.1 0-2.2-.2-1-1.1 1.3-.9 1.2-1-.3-.5-1 .3-3.6-.3-5.8-1.4-2.2-1.2-4.5-1.7-5.2-1.3-.9.5-.9.3 0-.8 1.1-1.4.9-1.6-1.7-1.4-1.7.1-3.1-.4-3.4-1.2s-1-1.1-1.6-.8-1.3-.1-1.6-1c-.4-.9-1.3-1.4-2.2-1-1.2.4-1.3.3-.2-1 1.1-1.4 1.4-1.3 2.5.2.7 1 1.9 1.4 2.9 1 1.1-.5 1.5-.3 1 .5s-.2.9.9.5c1-.3 1.7-.3 1.7.2s2 1.5 4.4 2.2c2.5.7 4.3 1.6 4 2-.2.4.6.5 1.8.1 1.5-.4 1.9-.2 1.3.7-.6 1-.3 1.1 1.5.1s2.1-.9 1.5.1c-.6.9-.3 1 1 .6.9-.4 2.3-.3 2.9.1 1.4 1.1 15.2 3.7 18.9 3.5 1.5 0 2.7.4 2.7.9 0 .6.8.8 1.8.6 1-.3 6.2.1 11.6.8s18.4 1.5 29 1.9l19.1.7 2.5-2.3c1.6-1.5 2.5-3.5 2.6-5.4 0-1.7.5-2.9 1.1-2.8s.9-.6.5-1.9c-.3-1.3-.1-1.9.5-1.5.7.5.9-.1.5-1.5-.3-1.4-.1-1.9.6-1.4.6.4 1.1-.1 1.1-1.1.1-3.8.5-5.3 1.2-5.3.4 0 .9.5 1.1 1.2.3.7.7.5 1.1-.6.5-1.1.3-1.5-.5-1s-.9.2-.5-1c.5-1.4.3-1.7-.8-1.2-2 .7-1.9-.9.2-4.1 2-3 2.6-5.6 1.1-4.7-.5.3-.9 0-.7-.7.4-3.3-.2-3.7-4.8-3.5-2.7.2-4.2.1-3.5-.1 3.8-1.4-1.8-6-6.1-4.9-4.9 1.2-69.1 1.8-78.2.7-4.9-.6-11-1.2-13.5-1.4-5.1-.3-10.3-2.6-14.2-6.1-1.4-1.4-2.8-2.2-3.2-1.9-.6.6-1.6-1.4-2-4.1-.1-.8-.6-1.9-1.1-2.3-.4-.4-.5-.1 0 .7.6 1.2.5 1.3-.5.3-1.1-1-1.1-1.5.1-2.9 1.1-1.4 1.1-1.6 0-1-1 .7-1.2.4-.7-1.2.4-1.1.2-2.3-.3-2.7-.7-.3-.8 0-.5.9s.2 1.6-.4 1.6c-1.4 0-2.4-2.9-1.7-5.1.4-1.1.2-1.9-.4-1.9s-.8-.7-.5-1.5c.4-.8.2-1.5-.3-1.5-.4 0-1-2.6-1.1-5.8-.6-11.7-2.2-13.2-1.8-1.7M229.5 245c.3.5.1 1-.4 1-.6 0-1.1-.5-1.1-1 0-.6.2-1 .4-1 .3 0 .8.4 1.1 1M95 251.6c0 .8-1.9 1.3-2.4.6-.3-.5.1-.9.9-.9s1.5.2 1.5.3m8.2 9.5c.9.9 2.3 1.9 3 2.2.8.2.9.8.4 1.3s-1.1.4-1.3-.4c-.3-.6-.8-1-1.3-.7s-1.1-.4-1.5-1.5-1-1.8-1.4-1.6c-.4.3-1.3-.5-2.1-1.7-1.2-2.1-1.2-2.1.6-.7 1 .8 2.7 2.2 3.6 3.1m120.2 9.9c-.6.6-1.5.5-2.4-.1-1.3-.9-1.2-1 .3-.5.9.3 1.7 0 1.7-.6s.3-.8.7-.5c.4.4.2 1.2-.3 1.7m289.1-72.5c.3 2.2.8 8.7 1.2 14.5 1.7 30.8-9.4 46.7-38.8 55.5-19.5 5.9-43.7 9.2-74.4 10.2l-20 .6-1.3-3.7c-.8-2.1-1.2-3.9-1-4.1s6.2-1.1 13.3-2c22.1-2.8 22.6-3.4 2.9-3.1l-18.2.2-1.7-5.6c-1-3-2-6-2.2-6.7-.3-.8 7.2-1.1 28.9-1.2 27.6-.1 53.3-1.3 54.6-2.6.3-.3-7-.2-16.4.1-10.3.4-25.3.1-38.4-.7-11.8-.7-23.4-1.3-25.6-1.3-3.9-.1-4.1-.2-2.8-2.1 1.2-1.7 2.4-1.9 10.6-1.7 5.1.2 14 .7 19.7 1.3 9.7.9 14.3.7 9-.5-6.4-1.5-26-3.6-27.1-3-.6.4-.9.3-.6-.2 1.1-1.6-9.6-1.1-11 .6-1 1.3-1.1 1.2-.6-.5.4-1.6.4-1.7-.5-.4-1.8 2.7-2.1 7-.5 7.6.7.3 1.1.9.8 1.4s-.8.7-1.2.5-1.3.2-2 1-.8 1.4-.3 1.4c.6 0 .7.7.4 1.7-.4 1-.2 1.4.4 1s1.3 1.3 1.7 4.4c.4 2.7 1.1 4.7 1.6 4.4s1.1.4 1.5 1.5 1.1 1.8 1.6 1.4c.6-.3.7.5.3 2-.7 3 1.1 8.5 3.4 10.3 1.9 1.6 12.1 1.6 32.7.3 20.4-1.4 23.7-1.7 25.9-2.6 1.5-.6 1.7-.4 1.1.7-.7 1.2-.6 1.2.7.1.8-.7 2.3-1 3.2-.6.9.3 1.6.2 1.6-.3s2.3-1 5.1-1.1 6-.7 7.1-1.3 2.9-.9 3.9-.6c1.2.3 1.7.1 1.2-.6-.4-.7 0-.8 1.1-.4 1 .4 3.3 0 5.2-.9s4.1-1.4 4.9-1q1.65.6.9-.6c-.5-.7-.2-.9.7-.6s3.3-.2 5.5-1.3c4.4-2 6.4-2.4 6.4-1 0 1.6-1.8 2.2-2.3.9-.4-.8-.6-.7-.6.4-.1.9-.6 2-1.3 2.4s-.8.3-.4-.4-.9-.3-2.8.9c-2.3 1.3-4.3 1.8-5.8 1.4s-1.8-.3-1 .3c.9.6.6 1.2-1.3 2-1.4.7-3.5 1.2-4.6 1.2-1 0-2.7.4-3.7.9-3.6 1.8-7.8 3.4-10 3.8-1.2.2-3.2.8-4.5 1.4-3.5 1.5 4.5.1 12.8-2.2 35.6-10.2 51.4-23.9 54.6-47.5 1-6.7.9-10.7-.5-22.5-1-7.9-2.2-15-2.7-15.9-.7-1.1-.9-.3-.4 2.5m-13.4 63.1c-1.1 1.5-2.1 2.1-2.1 1.4 0-1.5 3.1-5.2 3.8-4.6.2.3-.5 1.7-1.7 3.2m-3.7 1.2c.3.5-.3 1.6-1.4 2.4-1.6 1.4-1.9 1.5-2.4.2-.3-.9-.1-1.2.4-.9.6.3 1.3-.1 1.6-.9.7-1.8 1.1-2 1.8-.8m-4.8 4.7c.1.8-.2 1.3-.7.9-.5-.3-.9.1-.9.8s-.5.5-1.1-.6c-.9-1.4-.8-2 .2-2.7 1.5-.9 2.2-.5 2.5 1.6"/><path fill="#ffffff" d="M503.8 199c-.4 1.4-1.3 5.6-1.9 9.5-1.3 7-2.7 9.4-4.1 7.2-.4-.7-.8-.8-.8-.2 0 .5.5 1.7 1 2.5.8 1.2 1 1.2 1 .1 0-.8.2-1.2.5-.9.9.9-.6 3.8-1.6 3.2-.6-.3-.7.6-.4 2.3.3 1.5.2 2.1-.2 1.3-.4-1-1-.5-1.8 2-.6 1.9-2.2 4-3.6 4.7-1.3.7-2.9 2-3.6 2.8-.8 1.2-1.9 1.5-3.5 1-1.4-.4-1.8-.3-1 .2 3.1 2.3-21.6 5.3-43.7 5.4-6.9.1-21.7-.2-32.8-.6-13.3-.5-20.3-.4-20.3.2 0 2.4 54.3 4.2 74.3 2.4 20-1.7 25.7-3.3 31.6-8.9 5.4-5.1 9.1-12.1 11.1-21.2 1.2-5.8 1.1-17.8-.2-13m-167 20.7c.6.2 1.8.2 2.5 0 .6-.3.1-.5-1.3-.5s-1.9.2-1.2.5m-33.8 6.7c-.5.5-1 1.7-1 2.5 0 1.4-.2 1.4-1 .1-.8-1.1-.9-.9-.5 1 .3 1.4.2 4.5-.3 6.8-.8 3.2-.5 6.7 1 14.4 1.1 5.7 2.4 10.7 3 11.3.8.7.9.4.3-1-.5-1.1-1-9.1-1.3-17.8l-.4-15.8 6.3.6c16.1 1.6 23.9 2.6 30.8 4.3l7.3 1.7-9.3 3.9c-8.9 3.7-20.6 10.3-19.8 11.1.2.2 3.6-1.2 7.4-3 8-3.9 12.5-5.2 12.5-3.7 0 .5-1.2 1.3-2.7 1.6-3.3.8-21 12.4-21.7 14.3-.3.7.8.4 2.7-.8 6.9-4.2 30.5-9.9 41.5-9.9 2.9 0 3.2.2 2.7 2.3-.6 2.3 6.2 25.1 9.2 31 .8 1.6 1.3 3.3 1.1 3.9s-1.6-1.3-3.1-4.3c-2-3.9-2.6-4.5-2.2-2.4.9 4.3 4.4 9.6 5.8 8.8.7-.3.9-.3.5.2-.4.4-.3 1.7.3 2.7 1.8 3.3-.5 1.7-4.4-3-4.6-5.5-9.2-13.6-10.8-19-1.8-6.3-2.9-5.1-1.4 1.6 4.4 18.5 11.6 30.1 23.2 36.9 5 2.9 6.3 4.8 6.4 9.5.1 1.8.3 2.5.6 1.5.9-3.3 2-1.7 2.1 2.9.1 2.5-.2 4.4-.6 4.2-6.2-3.3-9-4-13.6-3.3-6.8.9-10.3 2.5-15.9 7.5-5.9 5.2-8.9 10.3-12.9 21.7-1.6 4.8-4.1 10.7-5.5 13-1.8 3.1-2.1 4.3-1.1 4.3 2.4 0 9.2-4.1 14.2-8.7 6.4-5.8 9.6-7.3 16.8-8.3 3.3-.5 7.1-1.6 8.5-2.5 3.4-2.2 5.3-7.3 5.3-14 0-5.1.2-5.5 2.3-5.5 2.3 0 2.4.1 1.5 5.7-1.3 8.7-4.9 20.1-11.6 36.8-7.4 18.4-11.2 30.5-11.2 35.2 0 3.3 1.1 4 1.6 1 .1-.7.9-3.2 1.7-5.7 1.9-5.9 3.1-10.3 2.9-11.3-.1-.4.3-.7.9-.7s.9-.6.6-1.3c-.2-.6.4-2.8 1.3-4.7 1-1.9 2.1-5 2.5-6.8.3-1.7 1-3.2 1.5-3.2.4 0 1-1.4 1.4-3.2.3-1.7 1.3-3.9 2.2-4.9.8-.9 1.4-2 1.3-2.5-.4-2.1.2-3.5 1.1-2.9.5.3.7 0 .5-.8-.3-.7.1-2.9.9-4.9.8-1.9 1.2-3.8.9-4.2-.4-.3-.2-.6.3-.6s1.1-.9 1.2-2c.4-4.4.6-4.9 1.9-5.5 1-.3 1.3-1.4.8-3.4-.4-1.8-.2-3.2.6-3.7s.9-.3.4.6c-.6.9-.4 1.1.5.5 1.1-.7 1-1-.1-1.9-1.7-1.4-2.1-4.6-.4-4 .6.3 1.2-.2 1.2-1s-.6-1.2-1.4-.9c-1.6.6-1.3-2.1.5-5.4 1-1.8 1-2.2-.1-1.7-1 .3-1.2-.4-.9-3.1.3-2.3 0-3.5-.8-3.5-.7 0-1-.7-.6-1.6.3-.8.2-1.2-.4-.9s-1-.1-1-.9c0-.9-.9-2.5-2-3.6s-2-2.3-1.9-2.6c0-.3-.3-.9-.7-1.2-.4-.4-.4-.1 0 .5.4.8.1 1.3-.8 1.3-.8 0-1.6-.4-1.8-.9-.1-.4-2.4-2.6-5-4.9-2.6-2.2-4.4-4.3-4.1-4.6.4-.3.1-.6-.5-.6-.7 0-1.2-.8-1.2-1.8 0-1.5-.2-1.5-1.1-.2s-1 1.2-.5-.3c.3-.9 0-1.7-.6-1.7s-.9-.3-.6-.6c.9-.9 4.9 1.6 4.3 2.6-.3.5.4.7 1.5.5s1.8 0 1.5.6c-.4.5-1.1.6-1.7.3-.6-.4-.5.2.2 1.5 1.5 2.9 3.1 1.7 2.5-2-.4-1.9-.1-2.9.7-2.9 1 0 .9-.3-.1-.9-.8-.5-1-1.4-.6-2.1.5-.8.4-1.1-.3-.6-.6.3-1.4-.3-1.8-1.6s-.2-2.4.5-2.6c.6-.2 1.1-.8 1.1-1.3 0-.4-.6-.6-1.3-.3-1 .4-1.3-.4-1-2.8s.2-2.9-.5-1.9c-.8 1.1-1.2.2-1.8-3.5-.5-2.7-.8-5.5-.7-6.1 0-.7-.3-1-.8-.7s-.9.2-1-.3c-.1-1.7-.8-4-2.4-8.7-.9-2.7-1.4-5.7-1.2-6.7.6-2.3-3.8-6.2-6.2-5.5-.9.3-4.5.6-8.1.7s-6.9.4-7.5.7c-.5.4-1.6.7-2.5.7-.8.1-2.6.5-4 1-2.2.7-2.3.6-1.2-.8.8-.9 2.1-1.9 3.1-2.2.9-.3 2.2-1.9 2.8-3.6 1-2.5 1.7-3 3.3-2.6 1.2.3 2 0 2-.7s1.1-1.8 2.4-2.6c1.9-1 2.2-1.5 1.3-2.5-.7-.7-1.5-1.1-1.9-.8-.5.2-.8 0-.8-.6 0-.9-4.6-2.2-9-2.6-.9 0-2.1-.5-2.8-.9s-3.3-.8-5.8-.9c-3 0-4.1-.3-3.2-.9.9-.7.4-.8-1.3-.4-1.4.3-2.9.3-3.2 0-1.1-1.1-16.6-1.1-17.7 0m63 61.7c0 .5-.4.9-.8.9-.5 0-.9-.7-.9-1.5s.4-1.2.9-.9c.4.3.8.9.8 1.5m11 37c0 .8.5.8 1.5-.1 1.1-.9 1.5-.9 1.5-.1 0 .7.4.9 1 .6.5-.3 1.8-.1 2.7.4 1.7 1 1.7 1 .1 1.1-1 0-1.8.5-1.8 1.2 0 .9-.3.9-1.2 0-.7-.7-1.7-1.2-2.2-1.2-.6 0-.5.4.2.8.7.5 1.4 2.6 1.6 4.7.2 3.2.1 3.5-1 2-.7-.9-1-2.3-.8-3 .8-1.9-2.8-.8-10.1 3-3.3 1.8-5.9 3.8-5.7 4.4.1.7-.1 1-.6.7s-1.9.5-3.1 1.8l-2.2 2.3h2.3c1.3 0 3.2.4 4.2.8 2.8 1.2 8.8-2.3 10.8-6.5 1.7-3.2 1.7-3.5.1-4.1-1.5-.5-1.5-.6.2-1.3 5.6-2.1 4.6 10.7-1.1 13.3-1.4.6-4 1.1-5.9 1.1-1.8 0-3.5.4-3.7.9-.1.5-1 1.1-1.8 1.3s-2.1 1.1-2.8 2.1c-.7.9-1.7 1.5-2.2 1.2s-1.2 0-1.6.6c-.5.8-.3.9.6.4s1.1-.4.6.3c-.4.7-1.2 1.2-1.8 1.2-.7 0-2.2 1-3.5 2.2-1.7 1.6-2.3 1.8-2.4.7 0-.8-.4-.5-.8.6-.5 1.1-1.2 2-1.7 2-1.8 0-3.4 1.7-2.8 2.7.4.6.2.8-.3.5-.7-.5-.5-1.8.6-4 1-2.1 1.9-3 2.3-2.3.4.6.8.8.8.4 0-.3.3-1.4.7-2.4.4-1.2.3-1.5-.5-1-.7.4-1.2.3-1.2-.3 0-.5.4-1.2.9-1.5.4-.3 1.1-1.9 1.4-3.6.4-2 1.3-3 2.4-3 1.4 0 1.5-.2.4-.9-1-.7-1.1-1.3-.2-3 .7-1.1.9-2.1.6-2.1s-.1-.9.5-2c.9-1.7 1.4-1.9 3.3-.8 2.1 1.1 2.1 1 .7-.7s-1.3-1.8.2-1.2c1.9.7 3.1-.7 3.3-3.6.2-1.8 4.3-5.4 5.8-4.9.4.1 1.8-.4 3-1.3 2.5-1.7 8.7-2 8.7-.4m-18.6 9c-.3.5-1 .7-1.5.3-.5-.3-.7-1-.3-1.5.3-.5 1-.7 1.5-.3.5.3.7 1 .3 1.5m14.4 2.1c-.2 1.4-1 2.3-2 2.2-.9-.1-1.4.4-1.2 1 .7 1.8-5.5 5.1-6.9 3.7-.8-.8-.6-1.5.9-2.6 1-.8 2.5-1.5 3.2-1.5s1-.5.7-1c-.3-.6-.1-1 .5-1s.9-.4.6-.9c-.6-1 .9-1.9 3.2-2 .8-.1 1.2.8 1 2.1m6.3 5.5c-1.2 2-1.4 1.4-.5-1.2.4-.9.9-1.4 1.1-1.1.3.2 0 1.3-.6 2.3m-18.1.3c0 .5-.5 1-1.1 1-.5 0-.7-.5-.4-1 .3-.6.8-1 1.1-1 .2 0 .4.4.4 1"/><path fill="#ffffff" d="M369.4 329.5c-.4.8-1 1.3-1.4 1-.7-.4-2.2.7-9.7 7.6-1.9 1.7-2.3 1.8-3.6.4-1.3-1.3-1.6-1.3-2.1.1-.3.8-.2 1.2.4.9 1.5-.9 1.2.6-.5 2.5-1.4 1.6-1.4 1.7.2 1.6 1-.1 4.1-2.3 6.8-5 2.8-2.6 7-5.8 9.4-7 3.4-1.8 4-2.4 2.7-2.9-1-.4-1.9-.1-2.2.8m-14 12c-.4.8-1.1 1.5-1.6 1.5-.6 0-.5-.6.2-1.5.7-.8 1.4-1.5 1.6-1.5s.1.7-.2 1.5m3.6 4.4c0 .6.4 1.3 1 1.6s.7-.1.4-.9c-.7-1.8-1.4-2.1-1.4-.7m-79.5-118.6c-2.2.4-5 .6-6.2.4s-2-.1-1.8.3c.5.8-2 1.6-8.1 2.6-2.1.3-5 1.2-6.3 2.1-1.3.8-2 1-1.7.4.4-.6.2-1.1-.3-1.1-.6 0-1.1.4-1.1 1 0 .5-.5.9-1.2.7-1.1-.2-1.3 1.1-.9 4.2 0 .5 1.7 1.5 3.6 2.2s3.5 1.9 3.5 2.6c0 1.6-1.1 1.7-2.8.3-.7-.5-.6-.3.2.6 1.1 1.3 1.7 1.4 3.4.3 2.6-1.7 15.3.4 19.9 3.2 2.4 1.5 3.1 1.7 2.7.6-.8-2.1-8.7-5.4-18.9-7.8-4.9-1.2-9.4-2.5-9.8-2.9-1.3-1.2 27.1-8 33.3-8 1.4 0 3 9.9 3 18.7 0 4.8.3 8.4.6 8 .4-.3 1-5.2 1.3-10.9.4-5.7 1-9.6 1.3-8.8 1 2.4 4.8 29.6 5.7 40 .8 9.3.8 9.2 1-6.5.1-17.7-.7-28.2-2-25-.6 1.7-.8 1.5-.8-.8-.1-2.9-6.3-15.1-8.4-16.4-1.6-1.1-4.4-1.1-9.2 0m13.6 1.3c0 1.1.3 1.4.6.6.3-.7.2-1.6-.1-1.9-.3-.4-.6.2-.5 1.3m199.4-.5c-.4.6-.5 1.2-.2 1.5.2.3.7-.2 1-1.1.7-1.7.1-2-.8-.4m-396 7.9c-.3.5-.1 1.8.5 2.7.9 1.6 1 1.5.5-.5-.9-3.3-.1-2.7 3.8 2.6 6.3 8.8 18.2 13.5 37.5 14.8 9.1.6 35.8-.3 34.9-1.2-.2-.2-8.7-.9-18.8-1.5-32.9-1.8-45.2-4.9-52.1-12.8-3.8-4.3-5.5-5.5-6.3-4.1m401.5 5.4c-4.8 6.5-16.5 13.1-30 17-9.8 2.8-27.2 6.4-37.5 7.7-11 1.3-15.9 3.4-6 2.5 3.3-.3 9.8-.8 14.5-1.2 18.3-1.3 35.8-6.1 47.1-12.9 6-3.7 14.9-12.7 14.9-15.1 0-1.9-.2-1.8-3 2m-129.3-.3c.7.7 1.5 1 1.8.7s-.2-.9-1.2-1.2c-1.4-.6-1.5-.5-.6.5m-138 1.6c.3.7.6 1.3.8 1.3s.5-.6.8-1.3c.3-.8-.1-1.4-.8-1.4s-1.1.6-.8 1.4"/><path fill="#ffffff" d="M242 244.8c-3.7.4-5 1.5-5 4.7 0 1.1-.7 3.3-1.5 4.8s-1 2.5-.5 2.2c1.4-.9 1.2.8-.4 4-.8 1.5-1.2 3.4-.9 4.1.3.8 0 1.4-.7 1.4s-1 .6-.7 1.3-.1 2.1-.9 3.2c-.8 1-1.4 3.1-1.4 4.6s-.5 2.9-1.1 3.1c-.5.2-1.2 1.5-1.3 3-.5 4.4 2.1 2.2 4.2-3.5 5-13.2 8.3-25.4 7.8-28l-.6-2.8 6.8.6c15.7 1.4 27.5 4.5 34.5 9.1 3.9 2.6 6.1 2.5 5-.2-.4-1-.8-1.2-1.2-.5-.4.6-2.6-.3-5.6-2.5-6.4-4.5-17.3-9.9-18.2-9-.4.4-.1 1.2.7 1.7 1.2.8 1.1.9-.5.6-1.1-.3-3.3-.8-5-1.2-3.6-.9-8.8-1.1-13.5-.7m259.6.9c-.6 1.4-.5 1.5.5.6.7-.7 1-1.5.7-1.8s-.9.2-1.2 1.2m-424.5 3.9c0 1.1.3 1.4.6.6.3-.7.2-1.6-.1-1.9-.3-.4-.6.2-.5 1.3m235.2-.1c0 .8.4 1.2.9.9s.6-1 .3-1.5c-.9-1.3-1.2-1.1-1.2.6m209.3-.2c.3 1 .9 1.5 1.2 1.2s0-1.1-.7-1.8c-1-.9-1.1-.8-.5.6m-418.1.6c-.6 1.1 1.3 2.6 2.2 1.7.4-.3.1-.6-.6-.6s-.9-.5-.6-1c.3-.6.4-1 .1-1s-.7.4-1.1.9m9.2 6.2c.7.7 1.5 1 1.8.7s-.2-.9-1.2-1.2c-1.4-.6-1.5-.5-.6.5m408.4.5c0 1.1.3 1.4.6.6.3-.7.2-1.6-.1-1.9-.3-.4-.6.2-.5 1.3M369.5 264c-.3.5-.1 1 .4 1 .6 0 1.1-.5 1.1-1 0-.6-.2-1-.4-1-.3 0-.8.4-1.1 1m145.2.1c.7.7 1.5 1 1.8.7s-.2-.9-1.2-1.2c-1.4-.6-1.5-.5-.6.5"/><path fill="#ffffff" d="M241.7 269.4c-.9 2.9-3.6 8.2-5.8 11.7-4.8 7.4-4.8 7.4-5.4 6.8-.2-.3.8-2.8 2.2-5.7s2.3-5.5 2-5.8c-.3-.4-1.3 1.1-2.2 3.1-.8 2.1-2.2 4.3-3.1 5-1.4 1-1.5 1.4-.3 3.3.8 1.2 2 2 2.7 1.7 2.1-.8.9 2.8-1.8 5.4-1.4 1.3-2.4 2.8-2.2 3.3.1.5-.2.7-.7.4s-1.1 0-1.4.8c-.3.7-2.6 2.3-5.1 3.5-2.5 1.3-4.4 2.8-4.3 3.4.1.7-.4 1.1-1.1.9-.7-.1-2.6.5-4.2 1.3-1.7.9-3 1.3-3 .9s-.6-.2-1.2.4c-1.4 1.1-1.8 1.2-4.7 1.2-3.3 0-5.3 2.8-4.6 6.4.4 1.9.3 2.6-.3 1.8-1.5-2.2-3 4.9-2.2 10.9.4 2.9.5 5.8.2 6.3s.1.6.8.1c1-.6 1.2-.4.7.8-.4 1-.2 1.7.4 1.7s.9.6.6 1.4.3 2.2 1.3 3.1c1.1 1 1.7 2.2 1.4 2.7s.2 1.8 1.2 2.9c.9 1 1.3 1.9.8 1.9s-.4.4.2.8c1.8 1.2 8.7 12.2 8 12.9-.3.3.9 2.2 2.6 4.1 1.7 2 3.9 5.4 4.9 7.7 1 2.2 2.1 4.4 2.6 4.8 1.4 1.5 4.2 10 3.6 11-.3.6-.1.7.4.4.6-.4 1.4 0 1.7.9.9 2.4.6 4.2-.4 1.9-.5-1.1-.9-1.4-.9-.7-.1.7 1 3.4 2.5 5.9 1.4 2.5 2.3 5.2 2 5.9s-.1 1.6.4 1.9c.6.4 1 1.5 1 2.5 0 4.9 7.1 6.4 9.5 2 .7-1.4 1.6-3.4 1.9-4.4 1.2-3.5 1.4-1.1.9 7.1-.4 5.2-1 8-1.6 7.6s-.7-.1-.3.6c1.3 2 .7 19.3-.7 21-.8 1-.8 1.3 0 .8.7-.5 1.4.3 1.8 2.2.5 2.3 1.1 2.9 2.7 2.6 1.2-.3 2.7 0 3.4.6.8.6 3.1.8 5.6.5 3.9-.5 4-.5 1.4.5-2 .8-2.4 1.4-1.5 1.9.7.5 2.2.2 3.5-.7 1.4-.9 6-1.7 12.1-2 7.2-.5 9-.8 7-1.4-6-1.6-18.2-2.1-22.6-.9-2.3.6-4.5.9-4.8.6-.8-.8 4.3-2.6 9.7-3.6l4.5-.8-5.8-.1c-3.2 0-7.4.6-9.4 1.4-1.9.8-3.6 1.5-3.7 1.5-1.2 0 2.8-49.8 4.9-62.2.8-4.5 1.3-8.3 1.1-8.6-.6-.6-11.6 33.3-11.6 35.7 0 1.2-.5 2.1-1.1 2.1-.8 0-1-1.7-.5-5.5.4-3.5.2-5.5-.4-5.5-.5 0-1 1.5-1 3.2 0 8.4-1.3 8-3.5-.9-4.1-16.3-9.5-27.8-22.3-48.3-7.1-11.4-9.4-16.5-12.3-28-2.2-8.8-2.2-9-.9-9 .6 0 1 .8 1 1.7 0 2.3 8.1 19.3 9.2 19.3 1.2 0 .9-1.2-.8-3.5-2.1-2.8-6.4-16.9-6.4-21 0-3.2.2-3.4 5.1-4.4 18.2-3.9 32.3-18.7 37.4-39.1.9-3.6 1.8-7.3 2.1-8.3.3-.9.1-1.7-.3-1.7-.5 0-1.7 2.4-2.6 5.4m-28.3 97.2c.3.8.2 1.2-.4.9s-1-1-1-1.6c0-1.4.7-1.1 1.4.7M245 405c0 .5-.2 1-.4 1-.3 0-.8-.5-1.1-1-.3-.6-.1-1 .4-1 .6 0 1.1.4 1.1 1m107.5-128.1c1.6 10 6.4 20.4 13.3 28.9 4.4 5.3 5.2 4.8 1.6-1-3.3-5.2-10.6-20.7-12.4-26.3-1.9-6-3.3-6.9-2.5-1.6"/><path fill="#ffffff" d="M242.1 282.7c-2.7 6.5-6.7 13.9-8.9 16.6-3.1 3.5-.2 2.8 3-.8 5.1-5.9 6.7-8.6 7.9-14.1 1.7-7.6.7-8.4-2-1.7m212.4 9.3c.4.6 1.1.8 1.6.5 1.4-.9 1.1-1.5-.7-1.5-.8 0-1.2.5-.9 1m-185 5.6c7.9 1.2 12.4 2.9 18.9 7.2 6.5 4.4 7.4 4.7 13.5 4.7 5.8 0 7.8-.6 16.9-4.9 5.6-2.7 10.2-5.3 10.2-5.8 0-.4-1.7-.1-3.7.8-11.4 4.8-17.3 6.6-22.4 6.7-4.9.1-6.3-.3-12.8-4.2-6.8-4.2-7.8-4.5-15.4-4.7-4.5-.1-6.8 0-5.2.2m-55.5 7.3c0 .6.4 1.3 1 1.6s.7-.1.4-.9c-.7-1.8-1.4-2.1-1.4-.7m29.8 4.7c-.4.3 1.2 1.6 3.5 2.8 5 2.5 9.9 8.8 17 21.6 4 7.4 5.3 9 5.5 7.2.5-3.7-3.5-15.5-7-20.8-1.8-2.7-5.1-6.1-7.3-7.6-4-2.7-10.4-4.5-11.7-3.2m102.7.9c-4.9 1.7-12 9.2-14.7 15.5-1.9 4.4-5 17.1-4.4 17.7.2.2 3.4-5 7.1-11.6 7.2-12.7 13.3-19.9 17.7-20.8 1.5-.3 2.5-.9 2.2-1.4-.7-1.2-3.2-1.1-7.9.6m-11.4 15.8c-1 .9-1.1.8-.5-.6.3-1 .9-1.5 1.2-1.2s0 1.1-.7 1.8m-72.6-13.2c-.4.6-.5 1.2-.2 1.5.2.3.7-.2 1-1.1.7-1.7.1-2-.8-.4m155 .7c1.6 1.1 1.7 3.2.2 3.2-4 0-6.1 8.6-2.9 11.8 1.9 1.9 3.9 1.8 5.7-.3.6-.6 3.1-2.9 5.8-5 6.5-5.2 5.2-5.6-2.2-.6-8.6 5.8-8.7 5.9-8.3 1.1l.4-4 8-2.5c4.3-1.4 8.8-2.5 9.8-2.5s2.2-.5 2.5-1.1c.5-.7-.4-.8-2.7-.4-1.8.3-5.5 1-8.3 1.4-4 .8-5.2.6-5.8-.5-.4-.8-1.3-1.4-2-1.4-.8 0-.8.3-.2.8M182 314.9c0 .6.4 1.3 1 1.6s.7-.1.4-.9c-.7-1.8-1.4-2.1-1.4-.7m37.3 2.1c-3.4 1.4-2.8 2.2 1.2 1.4 4.4-.8 12.4 1.1 19.8 4.7 4.9 2.4 5.6 2.5 4.7.9-.5-1-3.8-3.2-7.2-4.9-6.4-3.2-13.7-4-18.5-2.1m147.4.4c-3.6 1.3-8.1 4.5-7.4 5.3.2.2 1.9-.4 3.7-1.3 2.1-1.1 6.1-1.7 11.6-1.8 8-.1 10.2-.7 6.9-2-3.8-1.4-11.2-1.5-14.8-.2m77.8.7c-4.3 1-22.4 9.7-22.6 10.7-.5 3.8-.5 5.2-.1 5.2.2 0 2.1-1.5 4.2-3.4 5.9-5.4 13.9-8 24.5-8 5 0 10.3.3 11.8.7 2.1.6 2.7.5 2.1-.4q-.6-1.05.3-.6c2.3 1.4 7 3 9.8 3.4 2.8.3 2.6.1-1.5-2.2-8.8-4.8-21.2-7.1-28.5-5.4"/><path fill="#ffffff" d="M215.4 322.4c-3 1.3-7.4 5.3-7.4 6.6 0 .3 1.6.4 3.5.2l3.5-.4v5.7c0 6.4 2.2 11.9 5.6 14.1 1.2.9 5 1.9 8.4 2.4 6.5.9 10.4 3 18.1 9.6 4.4 3.8 12.5 8.2 13.4 7.2.3-.2-.8-2.9-2.4-5.9s-4.1-9-5.6-13.3c-3.2-9.5-5.9-13.9-11.5-19-8.3-7.5-18.4-10.3-25.6-7.2m11.9 1.7c.9 0 1.7.5 1.7 1s.8.9 1.8.7c.9-.2 1.6.2 1.5.9-.2.7.3 1 1.1.7.7-.3 2.8 1 4.7 2.8 1.8 1.8 3.6 3.2 4 3.1.5-.2.6.4.3 1.2-.8 2.1-1.2 1.9-3.4-1.8-1.1-1.8-2-2.5-2-1.6 0 2.1 4.6 6.3 5.9 5.4.6-.3 1.1.1 1.1.9 0 .9.5 1.5 1.1 1.3.6-.1 1.4.4 1.7 1.2s0 1.1-.7.7c-.6-.4-1.1-.2-1.1.3 0 .6.4 1.1.9 1.1 1.4 0 4.1 5.9 3.4 7.6-.3.7 0 1.4.6 1.4s1 .3 1 .7c-.1.5-.1 1.9 0 3.3.1 2 .3 2.2 1.1 1 .7-1.1 1-.7 1 1.8 0 2.3.4 3.1 1.2 2.6.7-.4.8-.3.4.4s-.1 1.2.6 1.3c1 0 1 .2.1.6-1.5.6-4.5-2.1-3.5-3.2.4-.5.1-.5-.5-.1-.8.4-2.5-.5-4.2-2.3-1.6-1.6-3.3-2.7-3.7-2.3-.5.4-.2-.2.6-1.2 1-1.3 1-1.7.2-1.2-1.7 1-5.4-.3-4.6-1.6.5-.7.1-.9-.9-.5-1 .3-1.7.2-1.7-.4s-.4-.8-.8-.5c-.4.2-1.4.1-2.2-.5-1.2-.7-1.1-.9.5-1 1.1-.1-.5-.5-3.5-.9-10.5-1.5-10-1-10.6-11.4-.1-3.2-.6-6.2-1.1-6.7s-.7 1.1-.5 3.4c.5 4.8-.6 4.7-1.2-.2-.2-1.7-1.2-3.9-2.2-4.7-1.7-1.2-1.7-1.3-.1-.8 1.3.5 1.6.2 1-1.2-.4-1.2-.3-1.5.5-1 .7.4 2 .2 2.9-.3 1-.6 2.7-.8 3.8-.5s2.8.6 3.8.5"/><path fill="#ffffff" d="M223 326.5c-1.1 1.3-.8 1.5 1.3 1.5 1.4 0 2.9-.5 3.3-1.1.4-.8-.1-.9-1.6-.4s-2 .4-1.6-.4c1-1.6 0-1.3-1.4.4m8.5 3.4c3.9 1.8 5.9 1.1 3.6-1.2-.8-.8-1.1-.8-1.1.1s-.5 1-1.9.2c-1.1-.5-2.6-1-3.3-.9-.7 0 .5.8 2.7 1.8m-8.1 1c.3.5 2.2 1.2 4.3 1.6 2.8.5 3.3.9 2.2 1.7-1 .7-.5.8 1.9.4 1.8-.3 3.1-.2 2.8.2s.4 1.3 1.5 2c1 .7 1.9.8 1.9.4 0-1.7-3.8-4.2-8.6-5.7-5.7-1.7-6.7-1.8-6-.6"/><path fill="#ffffff" d="M223 334.5c0 3.9 1.9 7 5.4 8.9 4.7 2.5 8.2 1.9 7.8-1.4-.6-4.3-2.5-5.5-6.1-3.7-1.7.9-3.1 1.1-3.1.6s-.6-.9-1.4-.9c-1.5 0-1.7-3.1-.3-4.1.5-.3.2-.9-.7-1.2-1.2-.5-1.6 0-1.6 1.8m9.8 5.1c2 .6 3.3 4.4 1.4 4.4-1.3 0-5.2-3-5.2-4.1 0-1 .6-1.1 3.8-.3m13.5 14.9c0 .8.4 1.2.9.9s.6-1 .3-1.5c-.9-1.3-1.2-1.1-1.2.6m-118.8-30.4c-.4.6-.5 1.2-.2 1.5.2.3.7-.2 1-1.1.7-1.7.1-2-.8-.4m337.5.6c0 .5-4.8.8-10.8.8-12.6.1-23.3 2.9-28.4 7.4l-3.1 2.8 3.4-.2c1.9-.1 3.4-.7 3.4-1.3 0-1.4.5-1.5 2.8-.6 1 .3 2.1.4 2.4 0 .4-.3-.2-.6-1.3-.6-4.1 0 2.3-2.9 8.7-3.9 13.2-2.1 18.2-2.4 17.4-.9-.6 1-.5 1.1.6 0 .7-.6 2.1-1.2 3-1.2s2.2-.7 2.9-1.5c.9-1 .9-1.5.1-1.5-.6 0-1.1.3-1.1.7m-118 7.8c-.6.8-1 1.9-.8 2.4.1.6.8-.1 1.5-1.4 1.3-2.8 1.1-3.1-.7-1m-168 1.9c0 .2.7.7 1.6 1 .8.3 1.2.2.9-.4-.6-1-2.5-1.4-2.5-.6m-29 3.8c-1 2.1-1 2.1.3.5 1.5-1.8 3.3-2.4 2.2-.7-1.2 1.9-1.4 7.1-.3 6.4.8-.5.9-.1.5 1-.5 1.3-.3 1.7.7 1.3 1.7-.7 2.8 1.6 1.5 3.2-.6.8-.5.8.3.1 1.6-1.4 3.1-1.3 2.2.2-.4.6-.3.8.4.4.6-.3 1.3-.2 1.7.3.3.6 1.2.8 2 .4.8-.3 1.5-.1 1.5.3 0 1 15.5 1.2 16.5.2.7-.7-2.4-1.4-11-2.3-7.2-.8-12.6-3.4-14.4-6.9-1.1-1.9-1.1-2.9-.2-3.9.9-1.2.8-1.6-.5-2.1-2.2-.8-2.2-.9-3.4 1.6m296.3-1.5c.9 1.4-2 3.6-9.9 7.8-7.3 3.8-6.5 8.6 1.4 7.6.6-.1 1.2.3 1.2.9s.5.8 1 .5c.6-.4.8-1.1.4-1.6-.3-.5-.2-.8.3-.7 2.1.6 13.8-7.4 12.6-8.6-.4-.3 0-.6.9-.6 1.7 0 2-2.9.6-4.7-1-1.3-6-1.4-5.2-.2.2.4-.3 1-1.2 1.3-.8.3-1.2.2-.9-.3s0-1.3-.6-1.7q-1.05-.6-.6.3m4 5.8c-4.8 4.3-9.4 6.6-14.7 7.2-3.8.4-3.5.1 5.4-4.7 5.2-2.9 10.2-5.8 11-6.6.9-.9 1.6-1 1.8-.4s-1.3 2.6-3.5 4.5m-138.7 4.2c-.9 10.7-.4 23 2 50.8.7 9.3 1.4 19.6 1.4 22.7 0 8.3 1.6 7.1 2.4-1.7 1.8-19.3.2-49.3-3.8-74.5l-1.2-7.5z"/><path fill="#ffffff" d="M155.3 338.7c-1.9.7.1 3.8 3.4 5.2 1.5.6 6.1 1.8 10.1 2.6s8.2 2 9.4 2.6c1.1.6 2.2.9 2.4.6.8-.8-8.6-5.8-9.6-5.2-.6.3-1 .1-1-.4 0-.6-1.5-1.1-3.2-1.1-3.7-.1-11.2-3.3-10.1-4.3.7-.8.4-.8-1.4 0m39.8 3.9c0 1.1.3 1.4.6.6.3-.7.2-1.6-.1-1.9-.3-.4-.6.2-.5 1.3m88.7 9.4c-3.3 16.3-4.3 25.8-4.3 42.7 0 13.2.3 18.5 1.3 19.5.9 1 1.2-.1 1.2-5.4 0-3.6.7-12.8 1.5-20.5 1.5-13.7 1.7-43.5.3-36.3m72.1 6.3c-4.5 4.1-6.5 6.7-5.1 6.7 1.5 0 8-5.8 9.3-8.1 1.5-2.8-.2-2.3-4.2 1.4m-119.2 2.8c2.6 2.8 5.9 5.7 7.3 6.4 3.8 1.9 9 2.9 9 1.6 0-.6-.6-1.1-1.4-1.1s-5.1-2.7-9.4-6c-4.4-3.3-8.5-6-9.2-6s1 2.3 3.7 5.1m7.9 18.1c-1.4 2.4-3.2 5.9-4 7.8-1.7 4.1-3.2 13.9-2 12.7 1.4-1.3 10.2-24.7 9.3-24.7-.4 0-1.9 1.9-3.3 4.2m96.8-1.6c.3.9 2 9.1 3.6 18.3 4.7 25.9 4.7 26 4.9 16.5 0-4.4-.4-10.7-1-14-1.4-7.8-6.1-22.4-7.2-22.4-.5 0-.6.7-.3 1.6m8.2 3.4c.3 2.5 1.2 9.2 1.9 15 .8 5.8 1.9 17.9 2.6 27 .6 9.1 1.4 16.8 1.8 17.2.3.4 1.1-.4 1.8-1.8.6-1.3.8-2.2.4-1.9-.7.4-1.4-11.2-1.5-25.2-.1-2.2-.4-3.9-.8-3.6-.5.2-.8 0-.8-.6 0-.5.8-1.4 1.7-1.9 1.5-.9 1.3-2.3-3-14.8-3.1-9.2-4.5-12.4-4.1-9.4m-136 8.3c.3 1 .9 1.5 1.2 1.2s0-1.1-.7-1.8c-1-.9-1.1-.8-.5.6m144.9 10.8c.2 4.6.7 7.3 1.4 7.1.6-.1 1 .1 1 .5-.1.5-.1 1.5 0 2.3.1 1.2.3 1.3 1 .1.7-1.1-2.2-15.8-3.4-17-.3-.2-.3 3 0 7m-7.7 30.4c-.3.3-.2 2.1.2 3.8.5 1.8 1.1 5.7 1.4 8.7l.7 5.5-9.8.3c-12.5.3-14.9 2.1-3.2 2.4 14.5.2 16.2-.6 15.1-7.1-.9-5.7-3.7-14.3-4.4-13.6M302 451.7c-12.8.4-16.3 1.7-7.5 2.8 7.1.9 17.5.1 23.5-1.9l4.5-1.4-4.5.1c-2.5.1-9.7.3-16 .4"/><path fill="#ffffff" d="M339 452.8c-1.4.1-6.1 1.2-10.5 2.5-6.7 1.8-10.7 2.1-24 2.2-13.9 0-16.9-.3-23.1-2.3-7.2-2.2-15.6-2.7-20.4-1.2-3.2 1-2.8 1.1 4.5 1.4 9.2.5 15.6 1.7 14.8 2.9-.4.7 0 .8 1.1.4 1-.4 2.3-.4 2.9 0 1.3.8 1.8.9 8 1.2 2.3 0 3.6.5 3.2 1.1-.3.5-.1 1 .4 1 .6 0 1.1-.3 1.1-.8 0-.4 4.8-.8 10.8-.9 11.1-.2 16.8-1 26.5-3.7 3.2-.9 6.3-1.4 6.9-1 .7.4.8.3.4-.4-.9-1.5-.5-1.5 2.9-.2 1.7.7 2.4.7 2 0-.3-.6.2-1 1.2-1s2.3-.4 3-.8c1.1-.7-6.8-1-11.7-.4m4.5 13.3c-.4.6-.5 1.2-.2 1.5.2.3.7-.2 1-1.1.7-1.7.1-2-.8-.4m3.9 13.2c-5.5 4.6-14.4 10.8-14.4 10 0-.3 1.2-2.6 2.6-5 2.3-4.1 2.4-4.4.6-3.4-3.7 2-6.2 6.6-6.2 11.4 0 3.8.5 4.9 3.1 7.2 3.3 2.7 5.3 2.7 2.5 0-.9-.9-1.6-1.7-1.6-1.8s2.4-.3 5.4-.4c6.5-.2 14.9-3.6 17.1-6.9.8-1.3 1.8-4.5 2-7.1l.5-4.8-1.6 3.5-1.6 3.5-1.7-4.2c-.9-2.3-1.9-4.4-2.2-4.7s-2.3.9-4.5 2.7m3.5 2.6c1 .7 1.1 1.3.1 3.2-1 2.2-1 2.2.3.6 1.6-1.9 3.4-.7 2.1 1.5-.4.7-.3.8.4.4 1.5-.9 1.5-.1 0 2.3-.7 1.1-1.9 1.7-3.2 1.4-1.8-.4-1.9-.3-.6.7s1.3 1.1-.2.6c-1-.3-2.6-.9-3.5-1.2-1.4-.4-1.5-.4-.4.4 3.4 2.4-6.9 4.1-11.3 1.9l-2.7-1.5 3.8-1.5c2.1-.8 5.1-2.6 6.7-4 1.7-1.4 3.5-2.3 4-2 .6.3.8.3.4-.2-.8-.8.9-3.5 2.1-3.5.3 0 1.2.4 2 .9M335 495c0 .5-.4 1-1 1-.5 0-1-.5-1-1 0-.6.5-1 1-1 .6 0 1 .4 1 1"/><path fill="#ffffff" d="M344 487c-.8.5-1 1-.5 1 .6 0 1.7-.5 2.5-1s1.1-1 .5-1c-.5 0-1.7.5-2.5 1m-91.9-6c-.1 6.9 3.2 12 9.4 14.3 2.8 1 7.4 2 10.2 2 2.9.1 5.3.4 5.3.6 0 .3-1 1.5-2.2 2.8-3.2 3.4-.5 2.8 3-.6 5.6-5.6 4.6-14-2-18.1-4-2.4-6.1-2.6-3.3-.2 2.2 1.9 6.9 8.2 6.1 8.2-.9 0-9.9-6.2-14-9.7-2.2-1.8-4.5-3.3-5.2-3.3s-1.9 1.8-2.5 4c-.7 2.2-1.6 4-2 4s-1.2-1.9-1.7-4.3l-1-4.2zm13.6 3.6c1.9 1.8 4.2 3.4 5.1 3.6s1.6 1.2 1.6 2.1c-.2 1.4.1 1.5 1.2.6 1-.8 1.4-.8 1.4 0 0 .6.3 1 .8 1 2-.3 3.2.2 3.2 1.5 0 1-1 1.4-3.1 1.4-2-.1-2.6-.4-1.7-.9.9-.6.9-.9.1-.9-.6 0-1.4.4-1.7.8-.6.9-1.7.9-8.4-.3-3-.5-3.9-1.1-3-1.6 1-.7.9-.9-.5-.9-1.2 0-1.6-.4-1.1-1.3.6-.9.4-.9-.8.1-1.4 1.1-1.7 1-2.3-.7-.8-2.5.1-4.1 2.1-4.1.8 0 1.4-.5 1.4-1.1 0-.5-.4-.7-1-.4-1 .6-1.4-.7-.5-1.7 1.3-1.2 4-.2 7.2 2.8M237 494.9c0 .6.4 1.3 1 1.6s.7-.1.4-.9c-.7-1.8-1.4-2.1-1.4-.7m120 .1c-.9.6-1 1-.3 1 .6 0 1.5-.5 1.8-1 .8-1.2.4-1.2-1.5 0m12 2.9c0 .6.4 1.3 1 1.6s.7-.1.4-.9c-.7-1.8-1.4-2.1-1.4-.7m-125.4 6.8c-.6 1.4-.5 1.5.5.6.7-.7 1-1.5.7-1.8s-.9.2-1.2 1.2m12 5.1c-.3.5.1.9.9.9s1.2-.4.9-.9c-.3-.4-.7-.8-.9-.8s-.6.4-.9.8m94.4-.4c0 .2.8 1 1.8 1.7 1.5 1.3 1.6 1.2.3-.4s-2.1-2.1-2.1-1.3m-97.3 4.7c.7.7 1.5 1 1.8.7s-.2-.9-1.2-1.2c-1.4-.6-1.5-.5-.6.5m32.3-.1c-6.8 1.2-8.1 3.9-2.7 6.1 4.5 1.9 31.2 1.9 39.1 0 7.1-1.8 5.1-3-3.2-2-12 1.5-38.2.8-38.2-1 0-.4 10.6-.6 23.5-.6 20.8 0 23.3-.2 21.9-1.5-1.2-1.2-4.8-1.5-19.2-1.5-9.7 0-19.3.2-21.2.5m49.8 7.7c.7.3 1.6.2 1.9-.1.4-.3-.2-.6-1.3-.5-1.1 0-1.4.3-.6.6M131.5 319c-.3.6.1.7.9.4 1.8-.7 2.1-1.4.7-1.4-.6 0-1.3.4-1.6 1m-1.2-15.5c0 .8.4 1.2.9.9s.6-1 .3-1.5c-.9-1.3-1.2-1.1-1.2.6m6.8 58.1c0 1.1.3 1.4.6.6.3-.7.2-1.6-.1-1.9-.3-.4-.6.2-.5 1.3"/></svg>